<svg xmlns="http://www.w3.org/2000/svg" enable-background="new 0 0 24 24" viewBox="0 0 24 24"><path fill="#303c42" d="M20.992,11.719L21,10c0-4.962-4.038-9-9-9s-9,4.038-9,9.002l0.008,1.716C2,12.679,2,14.037,2,14.5   c0,1.157,0.616,3.536,2.088,4.354c0.211,0.549,0.947,1.804,3.313,2.547C8.614,22.457,10.152,23,12,23s3.386-0.543,4.599-1.599   c2.366-0.744,3.102-1.998,3.313-2.547C21.384,18.036,22,15.657,22,14.5C22,14.037,22,12.679,20.992,11.719z"/><path fill="#8d6e63" d="M12,22c-1.942,0-3.485-0.673-4.586-2C6.502,18.901,6,17.42,6,15.828v-1.886   C6.636,14.593,7.52,15,8.5,15c0.753,0,1.499-0.249,2.1-0.7l0.8-0.6c0.346-0.258,0.855-0.258,1.201,0l0.799,0.6   c0.602,0.452,1.347,0.7,2.1,0.7c0.98,0,1.864-0.407,2.5-1.058v1.886c0,0.234-0.033,0.458-0.054,0.686   C17.708,17.646,16.702,18.5,15.5,18.5h-0.654C14.671,18.207,14.365,18,14,18h-1c-0.551,0-1,0.449-1,1s0.449,1,1,1h1   c0.365,0,0.672-0.207,0.846-0.5H15.5c0.632,0,1.217-0.181,1.729-0.475c-0.185,0.348-0.396,0.678-0.642,0.975   C15.485,21.327,13.942,22,12,22z"/><path fill="#37474f" d="M18,11.5c0,1.378-1.122,2.5-2.5,2.5c-0.538,0-1.07-0.178-1.5-0.5l-0.8-0.6l0,0   c-0.344-0.257-0.77-0.399-1.199-0.399s-0.855,0.142-1.2,0.4L10,13.5C9.571,13.822,9.038,14,8.5,14C7.122,14,6,12.878,6,11.5v-0.166   c0-0.482,0.327-0.9,0.794-1.018C7.635,10.106,8.501,10,9.368,10h5.265c0.867,0,1.733,0.106,2.573,0.316   C17.674,10.433,18,10.852,18,11.334V11.5z"/><linearGradient id="a" x1="6.774" x2="16.995" y1="14.558" y2="9.792" gradientTransform="matrix(1 0 0 -1 0 24)" gradientUnits="userSpaceOnUse"><stop offset="0" stop-color="#fff" stop-opacity=".2"/><stop offset="1" stop-color="#fff" stop-opacity="0"/></linearGradient><path fill="url(#a)" d="M18,11.5c0,1.378-1.122,2.5-2.5,2.5c-0.538,0-1.07-0.178-1.5-0.5l-0.8-0.6l0,0   c-0.344-0.257-0.77-0.399-1.199-0.399s-0.855,0.142-1.2,0.4L10,13.5C9.571,13.822,9.038,14,8.5,14C7.122,14,6,12.878,6,11.5v-0.166   c0-0.482,0.327-0.9,0.794-1.018C7.635,10.106,8.501,10,9.368,10h5.265c0.867,0,1.733,0.106,2.573,0.316   C17.674,10.433,18,10.852,18,11.334V11.5z"/><path fill="#616161" d="M19.304,18.04c-0.149,0.064-0.26,0.206-0.294,0.365c-0.008,0.035-0.153,0.594-0.943,1.186   c0.48-0.872,0.761-1.874,0.867-2.926C18.975,16.449,19,16.228,19,16h-0.014C18.987,15.942,19,15.887,19,15.828V11.5v-0.166   c0-0.942-0.638-1.759-1.552-1.987C16.528,9.117,15.581,9,14.632,9H9.368C8.419,9,7.472,9.117,6.552,9.347   C5.638,9.575,5,10.392,5,11.334V11.5v4.328c0,1.363,0.327,2.661,0.934,3.763C5.144,19,4.999,18.443,4.992,18.414   c-0.029-0.167-0.141-0.308-0.296-0.374C3.583,17.564,3,15.482,3,14.5c0-0.412,0-1.504,0.822-2.167   c0.119-0.095,0.187-0.239,0.187-0.392L4,10c0-4.411,3.589-8,8-8s8,3.589,8,7.998l-0.009,1.944c0,0.152,0.068,0.296,0.187,0.392   C21,12.996,21,14.088,21,14.5C21,15.482,20.417,17.564,19.304,18.04z"/><path fill="#fff" d="M3.704,15.204c0-0.412,0-1.504,0.822-2.167   c0.119-0.095,0.187-0.239,0.187-0.392l-0.009-1.941c0-4.411,3.589-8,8-8c2.027,0,3.875,0.764,5.286,2.011   C16.523,3.055,14.385,2,12,2c-4.411,0-8,3.589-8,8l0.009,1.941c0,0.152-0.068,0.296-0.187,0.392C3,12.996,3,14.088,3,14.5   c0,0.936,0.535,2.856,1.549,3.447C3.996,17.11,3.704,15.892,3.704,15.204z" enable-background="new" opacity=".2"/><path fill="#fff" d="M6.507 12.993c.29.386.687.683 1.15.85L11.5 10h-2L6.507 12.993zM15.45 10.05l-2.644 2.644c.136.06.274.116.393.205l0 0 .8.6 3.187-3.187C16.617 10.172 16.035 10.095 15.45 10.05z" enable-background="new" opacity=".1"/><linearGradient id="b" x1="13.706" x2="16.008" y1="5.691" y2="3.388" gradientTransform="matrix(1 0 0 -1 0 24)" gradientUnits="userSpaceOnUse"><stop offset="0" stop-opacity=".1"/><stop offset="1" stop-opacity="0"/></linearGradient><path fill="url(#b)" d="M16.586,20c0.247-0.297,0.457-0.627,0.642-0.975c-0.512,0.294-1.097,0.475-1.729,0.475   h-0.654c-0.175,0.293-0.481,0.5-0.846,0.5h-1c-0.271,0-0.516-0.11-0.697-0.287l1.925,1.925C15.156,21.312,15.948,20.77,16.586,20z"/><linearGradient id="c" x1="3.1" x2="21.68" y1="16.207" y2="7.543" gradientTransform="matrix(1 0 0 -1 0 24)" gradientUnits="userSpaceOnUse"><stop offset="0" stop-color="#fff" stop-opacity=".2"/><stop offset="1" stop-color="#fff" stop-opacity="0"/></linearGradient><path fill="url(#c)" d="M20.992,11.719L21,10c0-4.962-4.038-9-9-9s-9,4.038-9,9.002l0.008,1.716   C2,12.679,2,14.037,2,14.5c0,1.157,0.616,3.536,2.088,4.354c0.211,0.549,0.947,1.804,3.313,2.547C8.614,22.457,10.152,23,12,23   s3.386-0.543,4.599-1.599c2.366-0.744,3.102-1.998,3.313-2.547C21.384,18.036,22,15.657,22,14.5C22,14.037,22,12.679,20.992,11.719   z"/></svg>