<svg xmlns="http://www.w3.org/2000/svg" enable-background="new 0 0 24 24" viewBox="0 0 24 24"><path fill="#303c42" d="M21,10c0-3.343-1.896-9-9-9c-0.133,0-0.26,0.053-0.354,0.146L11.29,1.501   C3.812,1.608,2.999,7.468,2.999,10c0,1.128,0.263,2.235,0.417,2.79c-0.355,0.541-0.417,1.193-0.417,1.71   c0,0.958,0.888,3.103,2.15,3.452c0.013,0.031,0.026,0.064,0.04,0.099C5.733,19.404,7.181,23,11.999,23s6.266-3.596,6.811-4.95   c0.014-0.035,0.027-0.067,0.04-0.099c1.262-0.349,2.15-2.494,2.15-3.452c0-0.517-0.062-1.169-0.417-1.71   C20.736,12.235,21,11.128,21,10z"/><path fill="#4d4d4d" d="M5.444,10.898C8.169,11.987,10.735,12,11.999,12c1.269,0,3.838-0.014,6.569-1.109   c0.168,0.417,0.297,0.869,0.38,1.359c-0.834,0.5-1.387,1.082-1.827,1.565C16.473,14.529,16.043,15,14.999,15   c-0.315,0-0.587-0.158-0.931-0.357C13.574,14.356,12.959,14,11.999,14s-1.575,0.356-2.069,0.643C9.586,14.842,9.314,15,8.999,15   c-1.044,0-1.474-0.471-2.123-1.185c-0.446-0.49-1.007-1.081-1.861-1.586C5.062,11.834,5.208,11.366,5.444,10.898z"/><path fill="#fee8d7" d="M5.992,10.039C6.669,9.187,7.68,8.5,8.999,8.5c2.27,0,4.124-1.137,4.652-1.496   c1.229,0.073,3.28,1.009,4.472,2.988C15.596,10.987,13.192,11,11.999,11C10.827,11,8.476,10.987,5.992,10.039z"/><path fill="#4d4d4d" d="M11.499,2.5c0.133,0,0.26-0.053,0.354-0.146l0.352-0.352C19.91,2.133,20,9.676,20,10   c0,0.555-0.072,1.109-0.161,1.581C18.964,7.978,15.66,6,13.499,6c-0.108,0-0.213,0.035-0.3,0.1c-0.019,0.014-1.894,1.4-4.2,1.4   c-2.727,0-4.374,2.246-4.853,4.006C4.064,11.052,3.999,10.526,3.999,10C3.999,7.199,4.974,2.5,11.499,2.5z"/><path fill="#fff" d="M12.209,3.21c0.133,0,0.26-0.053,0.354-0.146l0.352-0.352   c2.339,0.04,3.968,0.767,5.114,1.764c-1.146-1.348-2.956-2.425-5.824-2.473l-0.352,0.352C11.76,2.449,11.633,2.501,11.5,2.501   c-6.525,0-7.5,4.699-7.5,7.5c0,0.526,0.065,1.052,0.147,1.506c0.12-0.44,0.313-0.911,0.577-1.369C4.86,7.314,6.11,3.21,12.209,3.21   z" enable-background="new" opacity=".2"/><path fill="#fee8d7" d="M18.5,17c-0.192,0-0.367,0.11-0.451,0.283c-0.046,0.096-0.101,0.23-0.167,0.394   C17.361,18.971,16.142,22,11.999,22s-5.362-3.029-5.883-4.323c-0.066-0.164-0.121-0.298-0.167-0.394C5.866,17.11,5.691,17,5.499,17   c-0.628,0-1.5-1.736-1.5-2.5c0-0.643,0.124-1.006,0.302-1.234c0.014-0.012,0.033-0.016,0.045-0.03   c0.053-0.06,0.105-0.108,0.158-0.151c0.725,0.425,1.193,0.92,1.633,1.404C6.844,15.266,7.513,16,8.999,16   c0.584,0,1.015-0.25,1.433-0.492C10.882,15.247,11.308,15,11.999,15s1.117,0.247,1.567,0.508C13.984,15.75,14.415,16,14.999,16   c1.486,0,2.155-0.734,2.862-1.511c0.44-0.483,0.908-0.978,1.633-1.403c0.054,0.044,0.106,0.092,0.158,0.151   c0.014,0.016,0.034,0.023,0.05,0.037C19.877,13.502,20,13.864,20,14.501C20,15.264,19.127,17,18.5,17z"/><path fill="#303c42" d="M8.749 14c1.047 0 1.75-.402 1.75-1s-.703-1-1.75-1-1.75.402-1.75 1S7.702 14 8.749 14zM15.249 14c1.047 0 1.75-.402 1.75-1s-.703-1-1.75-1-1.75.402-1.75 1S14.202 14 15.249 14z"/><linearGradient id="a" x1="8.476" x2="17.793" y1="14.489" y2="5.172" gradientTransform="matrix(1 0 0 -1 0 24)" gradientUnits="userSpaceOnUse"><stop offset="0" stop-opacity=".1"/><stop offset="1" stop-opacity="0"/></linearGradient><path fill="url(#a)" d="M13.373,21.874c3.051-0.582,4.051-3.06,4.509-4.197c0.066-0.164,0.121-0.298,0.167-0.394   C18.132,17.11,18.307,17,18.5,17c0.628,0,1.5-1.736,1.5-2.5c0-0.637-0.122-0.999-0.297-1.227c-0.016-0.014-0.036-0.021-0.05-0.037   c-0.052-0.059-0.104-0.107-0.158-0.151c-0.725,0.425-1.193,0.92-1.633,1.403C17.154,15.266,16.486,16,14.999,16   c-0.584,0-1.015-0.25-1.433-0.492C13.116,15.247,12.69,15,11.999,15s-1.117,0.247-1.567,0.508C10.014,15.75,9.583,16,8.999,16   c-1.486,0-2.155-0.734-2.862-1.511c-0.387-0.425-0.807-0.857-1.394-1.245L13.373,21.874z"/><linearGradient id="b" x1="2.967" x2="20.67" y1="16.358" y2="8.103" gradientTransform="matrix(1 0 0 -1 0 24)" gradientUnits="userSpaceOnUse"><stop offset="0" stop-color="#fff" stop-opacity=".2"/><stop offset="1" stop-color="#fff" stop-opacity="0"/></linearGradient><path fill="url(#b)" d="M21,10c0-3.343-1.896-9-9-9c-0.133,0-0.26,0.053-0.354,0.146L11.29,1.501   C3.812,1.608,2.999,7.468,2.999,10c0,1.128,0.263,2.235,0.417,2.79c-0.355,0.541-0.417,1.193-0.417,1.71   c0,0.958,0.888,3.103,2.15,3.452c0.013,0.031,0.026,0.064,0.04,0.099C5.733,19.404,7.181,23,11.999,23s6.266-3.596,6.811-4.95   c0.014-0.035,0.027-0.067,0.04-0.099c1.262-0.349,2.15-2.494,2.15-3.452c0-0.517-0.062-1.169-0.417-1.71   C20.736,12.235,21,11.128,21,10z"/></svg>