<svg xmlns="http://www.w3.org/2000/svg" enable-background="new 0 0 24 24" viewBox="0 0 24 24"><path fill="#303c42" d="M24,8c0-1.762-2.463-2.859-5-2.987V5c0-1.757-1.683-4-3-4c-0.36,0-0.882-0.191-1.434-0.394   C13.792,0.322,12.915,0,12,0s-1.792,0.322-2.566,0.606C8.882,0.809,8.36,1,8,1C6.683,1,5,3.243,5,5v0.013C2.463,5.141,0,6.238,0,8   c0,1.232,1.322,2.757,4.115,3.798c-0.053,0.47-0.103,0.941-0.112,1.405C3.11,13.778,3,14.774,3,15.5   c0,0.958,0.889,3.104,2.15,3.452c0.013,0.032,0.025,0.065,0.04,0.1C5.735,20.405,7.183,24,12,24s6.265-3.595,6.81-4.949   c0.015-0.035,0.027-0.068,0.04-0.1c1.262-0.348,2.15-2.494,2.15-3.452c0-0.726-0.11-1.721-1.003-2.296   c-0.009-0.464-0.059-0.935-0.112-1.406C22.678,10.757,24,9.232,24,8z"/><path fill="#6d4c41" d="M6,5c0-1.319,1.355-3,2-3c0.538,0,1.141-0.221,1.778-0.455C10.475,1.29,11.263,1,12,1   s1.525,0.29,2.222,0.545C14.859,1.779,15.462,2,16,2c0.645,0,2,1.681,2,3l0.002,2.466C17.999,7.481,17.611,9,12,9   C6.422,9,6.006,7.5,6,7.5V5z"/><path fill="#fff" d="M8,2.5c0.538,0,1.141-0.221,1.778-0.455   C10.474,1.79,11.262,1.5,12,1.5s1.525,0.29,2.222,0.545C14.86,2.279,15.462,2.5,16,2.5c0.645,0,2,1.681,2,3l0.002,1.968V7.467L18,5   c0-1.319-1.355-3-2-3c-0.538,0-1.141-0.221-1.778-0.455C13.525,1.29,12.737,1,12,1s-1.525,0.29-2.222,0.545   C9.141,1.779,8.538,2,8,2C7.355,2,6,3.681,6,5v0.5C6,4.181,7.355,2.5,8,2.5z" enable-background="new" opacity=".2"/><path fill="#fee8d7" d="M19,13.5c0,0.195,0.113,0.372,0.29,0.454C19.659,14.124,20,14.429,20,15.5   c0,0.764-0.872,2.5-1.5,2.5c-0.192,0-0.367,0.11-0.45,0.283c-0.047,0.096-0.102,0.23-0.167,0.395C17.361,19.971,16.142,23,12,23   s-5.361-3.029-5.883-4.322c-0.065-0.165-0.12-0.299-0.167-0.395C5.867,18.11,5.692,18,5.5,18C4.872,18,4,16.264,4,15.5   c0-1.071,0.341-1.376,0.709-1.546C4.887,13.873,5,13.695,5,13.5c0-0.455,0.031-0.918,0.077-1.382C6.877,12.652,9.165,13,12,13   s5.123-0.348,6.923-0.882C18.969,12.582,19,13.045,19,13.5z"/><path fill="#7c5e54" d="M12,12C3.607,12,1,9.068,1,8c0-0.99,1.82-1.857,4-1.976V7.5C5,7.917,5.338,10,12,10s7-2.083,7-2.5   V6.024C21.18,6.143,23,7.01,23,8C23,9.068,20.393,12,12,12z"/><path fill="#303c42" d="M9.56,6.736C9.646,6.898,9.815,7,10,7h1.065l0.519,0.777C11.677,7.917,11.833,8,12,8   s0.323-0.083,0.416-0.223L12.935,7H14c0.185,0,0.354-0.102,0.44-0.264c0.088-0.163,0.078-0.36-0.024-0.513L13.934,5.5l0.482-0.723   c0.103-0.153,0.112-0.351,0.024-0.513C14.354,4.102,14.185,4,14,4h-1.065l-0.519-0.777c-0.186-0.278-0.646-0.278-0.832,0L11.065,4   H10C9.815,4,9.646,4.102,9.56,4.264c-0.088,0.163-0.078,0.36,0.024,0.513L10.066,5.5L9.584,6.223   C9.481,6.376,9.472,6.573,9.56,6.736z"/><path fill="#ffd54f" d="M11.083,5.223L10.935,5h0.398c0.167,0,0.323-0.083,0.416-0.223L12,4.401l0.251,0.376   C12.344,4.917,12.5,5,12.667,5h0.398l-0.148,0.223c-0.112,0.168-0.112,0.387,0,0.555L13.065,6h-0.398   c-0.167,0-0.323,0.083-0.416,0.223L12,6.599l-0.251-0.376C11.656,6.083,11.5,6,11.333,6h-0.398l0.148-0.223   C11.195,5.609,11.195,5.391,11.083,5.223z"/><linearGradient id="a" x1="8.539" x2="18.751" y1="15.344" y2="5.131" gradientTransform="matrix(1 0 0 -1 0 24)" gradientUnits="userSpaceOnUse"><stop offset="0" stop-opacity=".1"/><stop offset="1" stop-opacity="0"/></linearGradient><path fill="url(#a)" d="M17.883,18.678c0.065-0.165,0.12-0.299,0.167-0.395C18.133,18.11,18.308,18,18.5,18   c0.628,0,1.5-1.736,1.5-2.5c0-1.071-0.341-1.376-0.71-1.546C19.113,13.872,19,13.695,19,13.5c0-0.455-0.031-0.918-0.077-1.382   C17.123,12.652,14.835,13,12,13s-5.123-0.348-6.923-0.882L15.17,22.211C16.853,21.222,17.53,19.553,17.883,18.678z"/><circle cx="8.5" cy="14" r="1" fill="#303c42"/><circle cx="15.5" cy="14" r="1" fill="#303c42"/><linearGradient id="b" x1="10.245" x2="18.872" y1="19.951" y2="11.325" gradientTransform="matrix(1 0 0 -1 0 24)" gradientUnits="userSpaceOnUse"><stop offset="0" stop-opacity=".1"/><stop offset="1" stop-opacity="0"/></linearGradient><path fill="url(#b)" d="M23,8c0-0.99-1.82-1.857-4-1.976V7.5c0,0.417-0.338,2.5-7,2.5   c-3.831,0-5.565-0.688-6.352-1.353H5.647l3.191,3.191C9.79,11.939,10.834,12,12,12C20.393,12,23,9.068,23,8z"/><linearGradient id="c" x1=".489" x2="21.031" y1="17.458" y2="7.879" gradientTransform="matrix(1 0 0 -1 0 24)" gradientUnits="userSpaceOnUse"><stop offset="0" stop-color="#fff" stop-opacity=".2"/><stop offset="1" stop-color="#fff" stop-opacity="0"/></linearGradient><path fill="url(#c)" d="M24,8c0-1.762-2.463-2.859-5-2.987V5c0-1.757-1.683-4-3-4c-0.36,0-0.882-0.191-1.434-0.394   C13.792,0.322,12.915,0,12,0s-1.792,0.322-2.566,0.606C8.882,0.809,8.36,1,8,1C6.683,1,5,3.243,5,5v0.013C2.463,5.141,0,6.238,0,8   c0,1.232,1.322,2.757,4.115,3.798c-0.053,0.47-0.103,0.941-0.112,1.405C3.11,13.778,3,14.774,3,15.5   c0,0.958,0.889,3.104,2.15,3.452c0.013,0.032,0.025,0.065,0.04,0.1C5.735,20.405,7.183,24,12,24s6.265-3.595,6.81-4.949   c0.015-0.035,0.027-0.068,0.04-0.1c1.262-0.348,2.15-2.494,2.15-3.452c0-0.726-0.11-1.721-1.003-2.296   c-0.009-0.464-0.059-0.935-0.112-1.406C22.678,10.757,24,9.232,24,8z"/></svg>