<svg xmlns="http://www.w3.org/2000/svg" enable-background="new 0 0 24 24" viewBox="0 0 24 24"><path fill="#303c42" d="M24,7.877c0-1.776-2.463-2.881-5-3.01V4.854C19,3.328,17.494,0,16,0c-0.523,0-1.119,0.18-1.75,0.371   C13.548,0.583,12.752,0.824,12,0.824s-1.548-0.241-2.25-0.453C9.119,0.18,8.523,0,8,0C6.506,0,5,3.329,5,4.854v0.013   c-2.537,0.129-5,1.234-5,3.01c0,1.241,1.322,2.778,4.115,3.827c-0.053,0.474-0.103,0.948-0.112,1.416C3.111,13.7,3,14.703,3,15.435   c0,0.965,0.888,3.127,2.15,3.478c0.013,0.031,0.026,0.064,0.04,0.099C5.734,20.376,7.182,24,12,24s6.266-3.624,6.811-4.988   c0.014-0.035,0.027-0.068,0.04-0.099c1.262-0.351,2.15-2.513,2.15-3.478c0-0.732-0.111-1.734-1.003-2.314   c-0.01-0.468-0.059-0.943-0.112-1.416C22.678,10.656,24,9.118,24,7.877z"/><path fill="#8d6e63" d="M18.001,7.466C18,7.481,17.611,9,12,9C6.422,9,6.005,7.5,6,7.5V6.905C6.917,7.479,8.667,8,12,8   c3.335,0,5.085-0.522,6.001-1.095V7.466z"/><path fill="#6d4c41" d="M6,5c0-1.451,1.461-3.817,2-3.817c0.376,0,0.904,0.158,1.462,0.326C10.23,1.739,11.101,2,12,2   s1.77-0.261,2.538-0.492C15.097,1.341,15.624,1.182,16,1.182c0.539,0,2,2.366,2,3.817v0.47c-0.012,0.051-0.457,1.53-6,1.53   c-5.578,0-5.995-1.5-6-1.5V5z"/><path fill="#fee8d7" d="M19,13.5c0,0.195,0.113,0.372,0.291,0.454C19.66,14.124,20,14.429,20,15.5   c0,0.764-0.872,2.5-1.5,2.5c-0.192,0-0.367,0.11-0.451,0.283c-0.046,0.096-0.101,0.23-0.167,0.394C17.362,19.971,16.143,23,12,23   s-5.362-3.029-5.883-4.323c-0.066-0.164-0.121-0.298-0.167-0.394C5.867,18.11,5.692,18,5.5,18C4.872,18,4,16.264,4,15.5   c0-1.071,0.341-1.376,0.709-1.546C4.887,13.872,5,13.695,5,13.5c0-0.455,0.031-0.918,0.077-1.382C6.877,12.652,9.165,13,12,13   s5.123-0.348,6.923-0.882C18.969,12.582,19,13.045,19,13.5z"/><path fill="#6d4c41" d="M12,12C3.607,12,1,9.068,1,8c0-0.99,1.82-1.857,4-1.976V7.5C5,7.917,5.337,10,12,10s7-2.083,7-2.5   V6.024C21.18,6.143,23,7.01,23,8C23,9.068,20.393,12,12,12z"/><path fill="#fff" d="M8,1.745c0.376,0,0.903,0.158,1.463,0.326   c0.768,0.23,1.638,0.492,2.537,0.492s1.77-0.261,2.537-0.492c0.56-0.167,1.087-0.326,1.463-0.326c0.531,0,1.951,2.293,1.992,3.749   c0.004-0.01,0.007-0.02,0.008-0.023V5c0-1.451-1.461-3.817-2-3.817c-0.376,0-0.903,0.158-1.463,0.326C13.77,1.739,12.899,2,12,2   s-1.77-0.261-2.537-0.492C8.903,1.341,8.376,1.182,8,1.182c-0.539,0-2,2.366-2,3.817v0.5c0,0,0.003,0.006,0.005,0.013   C6.036,4.058,7.467,1.745,8,1.745z" enable-background="new" opacity=".2"/><linearGradient id="a" x1="10.196" x2="18.871" y1="19.998" y2="11.324" gradientTransform="matrix(1 0 0 -1 0 24)" gradientUnits="userSpaceOnUse"><stop offset="0" stop-opacity=".1"/><stop offset="1" stop-opacity="0"/></linearGradient><path fill="url(#a)" d="M23,8c0-0.99-1.82-1.857-4-1.976V7.5c0,0.417-0.338,2.5-7,2.5   c-3.92,0-5.643-0.721-6.403-1.399l3.237,3.237C9.787,11.939,10.832,12,12,12C20.393,12,23,9.068,23,8z"/><linearGradient id="b" x1="8.582" x2="18.76" y1="15.32" y2="5.143" gradientTransform="matrix(1 0 0 -1 0 24)" gradientUnits="userSpaceOnUse"><stop offset="0" stop-opacity=".1"/><stop offset="1" stop-opacity="0"/></linearGradient><path fill="url(#b)" d="M19.291,13.954C19.113,13.872,19,13.695,19,13.5c0-0.455-0.031-0.918-0.077-1.382   C17.123,12.652,14.835,13,12,13c-2.808,0-5.077-0.343-6.869-0.869l10.063,10.063c1.665-0.99,2.337-2.646,2.688-3.518   c0.066-0.164,0.121-0.298,0.167-0.394C18.133,18.11,18.308,18,18.5,18c0.628,0,1.5-1.736,1.5-2.5   C20,14.429,19.659,14.124,19.291,13.954z"/><circle cx="8.5" cy="14" r="1" fill="#303c42"/><circle cx="15.5" cy="14" r="1" fill="#303c42"/><linearGradient id="c" x1=".627" x2="21.199" y1="17.882" y2="8.289" gradientTransform="matrix(1 0 0 -1 0 24)" gradientUnits="userSpaceOnUse"><stop offset="0" stop-color="#fff" stop-opacity=".2"/><stop offset="1" stop-color="#fff" stop-opacity="0"/></linearGradient><path fill="url(#c)" d="M24,7.877c0-1.776-2.463-2.881-5-3.01V4.854C19,3.328,17.494,0,16,0   c-0.523,0-1.119,0.18-1.75,0.371C13.548,0.583,12.752,0.824,12,0.824s-1.548-0.241-2.25-0.453C9.119,0.18,8.523,0,8,0   C6.506,0,5,3.329,5,4.854v0.013c-2.537,0.129-5,1.234-5,3.01c0,1.241,1.322,2.778,4.115,3.827   c-0.053,0.474-0.103,0.948-0.112,1.416C3.111,13.7,3,14.703,3,15.435c0,0.965,0.888,3.127,2.15,3.478   c0.013,0.031,0.026,0.064,0.04,0.099C5.734,20.376,7.182,24,12,24s6.266-3.624,6.811-4.988c0.014-0.035,0.027-0.068,0.04-0.099   c1.262-0.351,2.15-2.513,2.15-3.478c0-0.732-0.111-1.734-1.003-2.314c-0.01-0.468-0.059-0.943-0.112-1.416   C22.678,10.656,24,9.118,24,7.877z"/></svg>