<svg height="512" viewBox="0 0 128 128" width="512" xmlns="http://www.w3.org/2000/svg"><g><g><path d="m1.75 1.747h9a5 5 0 0 1 5 5v114.5a5 5 0 0 1 -5 5h-9a0 0 0 0 1 0 0v-124.5a0 0 0 0 1 0 0z" fill="#ffde33"/><path d="m112.25 1.747h9a5 5 0 0 1 5 5v114.5a5 5 0 0 1 -5 5h-9a0 0 0 0 1 0 0v-124.5a0 0 0 0 1 0 0z" fill="#ffde33" transform="matrix(-1 0 0 -1 238.5 127.994)"/><g fill="#ff6536"><path d="m29.563 13.262a5 5 0 0 1 5 5v8.809a5 5 0 0 1 -5 5 5 5 0 0 1 -5-5v-8.809a5 5 0 0 1 5-5z"/><path d="m47.813 13.262a5 5 0 0 1 5 5v8.809a5 5 0 0 1 -5 5 5 5 0 0 1 -5-5v-8.809a5 5 0 0 1 5-5z"/><path d="m66.063 13.262a5 5 0 0 1 5 5v8.809a5 5 0 0 1 -5 5 5 5 0 0 1 -5-5v-8.809a5 5 0 0 1 5-5z"/></g><g fill="#fff1b8"><path d="m52.813 18.667h8.25v8h-8.25z"/><path d="m34.563 18.667h8.25v8h-8.25z"/><path d="m15.75 18.667h8.813v8h-8.813z"/><path d="m71.063 18.667h41.188v8h-41.188z"/></g><path d="m49.578 40.817a5 5 0 0 1 5 5v8.81a5 5 0 0 1 -5 5 5 5 0 0 1 -5-5v-8.81a5 5 0 0 1 5-5z" fill="#6c0"/><path d="m67.828 40.817a5 5 0 0 1 5 5v8.81a5 5 0 0 1 -5 5 5 5 0 0 1 -5-5v-8.81a5 5 0 0 1 5-5z" fill="#6c0"/><path d="m86.078 40.817a5 5 0 0 1 5 5v8.81a5 5 0 0 1 -5 5 5 5 0 0 1 -5-5v-8.81a5 5 0 0 1 5-5z" fill="#6c0"/><g fill="#fff1b8"><path d="m72.828 46.222h8.25v8h-8.25z"/><path d="m54.578 46.222h8.25v8h-8.25z"/><path d="m15.75 46.222h28.828v8h-28.828z"/><path d="m91.078 46.222h21.172v8h-21.172z"/></g><path d="m29.563 68.373a5 5 0 0 1 5 5v8.81a5 5 0 0 1 -5 5 5 5 0 0 1 -5-5v-8.81a5 5 0 0 1 5-5z" fill="#3deabd"/><path d="m47.813 68.373a5 5 0 0 1 5 5v8.81a5 5 0 0 1 -5 5 5 5 0 0 1 -5-5v-8.81a5 5 0 0 1 5-5z" fill="#3deabd"/><path d="m66.063 68.373a5 5 0 0 1 5 5v8.81a5 5 0 0 1 -5 5 5 5 0 0 1 -5-5v-8.81a5 5 0 0 1 5-5z" fill="#3deabd"/><g fill="#fff1b8"><path d="m52.813 73.778h8.25v8h-8.25z"/><path d="m34.563 73.778h8.25v8h-8.25z"/><path d="m15.75 73.778h8.813v8h-8.813z"/><path d="m71.063 73.778h41.188v8h-41.188z"/></g><path d="m59.587 95.929a5 5 0 0 1 5 5v8.809a5 5 0 0 1 -5 5 5 5 0 0 1 -5-5v-8.809a5 5 0 0 1 5-5z" fill="#995c3d"/><path d="m77.837 95.929a5 5 0 0 1 5 5v8.809a5 5 0 0 1 -5 5 5 5 0 0 1 -5-5v-8.809a5 5 0 0 1 5-5z" fill="#995c3d"/><path d="m96.087 95.929a5 5 0 0 1 5 5v8.809a5 5 0 0 1 -5 5 5 5 0 0 1 -5-5v-8.809a5 5 0 0 1 5-5z" fill="#995c3d"/><g fill="#fff1b8"><path d="m82.837 101.333h8.25v8h-8.25z"/><path d="m64.587 101.333h8.25v8h-8.25z"/><path d="m15.75 101.333h38.837v8h-38.837z"/><path d="m101.086 101.333h11.164v8h-11.164z"/></g></g><g><path d="m126.25 0h-9a6.758 6.758 0 0 0 -6.75 6.75v10.17h-37.823a6.75 6.75 0 0 0 -13.229 0h-5.021a6.75 6.75 0 0 0 -13.229 0h-5.021a6.75 6.75 0 0 0 -13.229 0h-5.448v-10.173a6.758 6.758 0 0 0 -6.75-6.747h-9a1.75 1.75 0 0 0 -1.75 1.747v85.436a1.75 1.75 0 0 0 3.5 0v-83.683h7.25a3.254 3.254 0 0 1 3.25 3.247v114.5a3.254 3.254 0 0 1 -3.25 3.25h-7.25v-16.809a1.75 1.75 0 0 0 -3.5 0v18.559a1.75 1.75 0 0 0 1.75 1.753h9a6.758 6.758 0 0 0 6.75-6.75v-10.167h35.472a6.75 6.75 0 0 0 13.229 0h5.021a6.75 6.75 0 0 0 13.229 0h5.021a6.75 6.75 0 0 0 13.229 0h7.8v10.164a6.758 6.758 0 0 0 6.75 6.75h9a1.75 1.75 0 0 0 1.75-1.75v-124.5a1.75 1.75 0 0 0 -1.751-1.747zm-23.55 99.583a6.75 6.75 0 0 0 -13.229 0h-5.02a6.75 6.75 0 0 0 -13.229 0h-5.022a6.75 6.75 0 0 0 -13.229 0h-35.471v-16.056h5.448a6.75 6.75 0 0 0 13.229 0h5.023a6.75 6.75 0 0 0 13.229 0h5.021a6.75 6.75 0 0 0 13.229 0h37.821v16.056zm-49.871-53.36v8.4a3.25 3.25 0 0 1 -6.5 0v-8.81a3.25 3.25 0 0 1 6.5 0zm-3.25 15.154a6.76 6.76 0 0 0 6.614-5.4h5.021a6.75 6.75 0 0 0 13.229 0h5.021a6.75 6.75 0 0 0 13.229 0h17.807v16.05h-37.823a6.75 6.75 0 0 0 -13.229 0h-5.021a6.75 6.75 0 0 0 -13.229 0h-5.021a6.75 6.75 0 0 0 -13.229 0h-5.448v-16.054h25.464a6.761 6.761 0 0 0 6.615 5.404zm11.5-8.9h-4.75v-4.5h4.75zm10-6.25v8.4a3.25 3.25 0 0 1 -6.5 0v-8.81a3.25 3.25 0 1 1 6.5 0zm8.25 6.25h-4.75v-4.5h4.75zm10-6.25v8.4a3.25 3.25 0 0 1 -6.5 0v-8.81a3.25 3.25 0 1 1 6.5 0zm-16.516 29.3h37.687v4.5h-37.687zm37.687-23.054h-17.671v-4.5h17.671zm-47.687 29.3v-8.4a3.25 3.25 0 0 1 6.5 0v8.81a3.25 3.25 0 0 1 -6.5 0zm-8.25-6.25h4.75v4.5h-4.75zm-10 6.25v-8.4a3.25 3.25 0 0 1 6.5 0v8.81a3.25 3.25 0 0 1 -6.5 0zm-8.25-6.25h4.75v4.5h-4.75zm-10 6.25v-8.4a3.25 3.25 0 0 1 6.5 0v8.81a3.25 3.25 0 0 1 -6.5 0zm-8.813-6.246h5.313v4.5h-5.313zm25.329-23.054h-25.329v-4.5h25.329zm67.671-27.556h-5.25a1.75 1.75 0 0 0 0 3.5h5.25v16.056h-17.807a6.75 6.75 0 0 0 -13.229 0h-5.021a6.75 6.75 0 0 0 -13.229 0h-5.021a6.75 6.75 0 0 0 -13.229 0h-25.464v-16.056h5.448a6.75 6.75 0 0 0 13.229 0h5.023a6.75 6.75 0 0 0 13.229 0h5.021a6.75 6.75 0 0 0 13.229 0h6.321a1.75 1.75 0 0 0 0-3.5h-6.187v-4.5h37.687zm-47.687-6.655a3.25 3.25 0 0 1 6.5 0v8.809a3.25 3.25 0 0 1 -6.5 0zm-3.5 6.655h-4.75v-4.5h4.75zm-14.75-6.655a3.25 3.25 0 0 1 6.5 0v8.809a3.25 3.25 0 0 1 -6.5 0zm-3.5 6.655h-4.75v-4.5h4.75zm-14.75-6.655a3.25 3.25 0 0 1 6.5 0v8.809a3.25 3.25 0 0 1 -6.5 0zm-3.5 2.155v4.5h-5.313v-4.5zm-5.313 82.666h35.336v4.5h-35.336zm45.336 6.655a3.25 3.25 0 0 1 -6.5 0v-8.809a3.25 3.25 0 0 1 6.5 0zm3.5-6.655h4.75v4.5h-4.75zm14.75 6.655a3.25 3.25 0 0 1 -6.5 0v-8.809a3.25 3.25 0 0 1 6.5 0zm3.5-6.655h4.75v4.5h-4.75zm14.75 6.655a3.25 3.25 0 0 1 -6.5 0v-8.809a3.25 3.25 0 0 1 6.5 0zm3.5-2.155v-4.5h7.664v4.5zm21.664 16.917h-7.25a3.254 3.254 0 0 1 -3.25-3.25v-114.503a3.254 3.254 0 0 1 3.25-3.25h7.25z"/><path d="m90.375 28.417h3.5a1.75 1.75 0 0 0 0-3.5h-3.5a1.75 1.75 0 0 0 0 3.5z"/></g></g></svg>