<svg id="Layer_1" enable-background="new 0 0 512.002 512.002" height="512" viewBox="0 0 512.002 512.002" width="512" xmlns="http://www.w3.org/2000/svg"><g><g clip-rule="evenodd" fill-rule="evenodd"><path d="m180 120c0-11.046-8.954-20-20-20h-20v-20c0-11.046-8.954-20-20-20s-20 8.954-20 20v20h-20c-11.046 0-20 8.954-20 20s8.954 20 20 20h20v20c0 11.046 8.954 20 20 20s20-8.954 20-20v-20h20c11.046 0 20-8.954 20-20z" fill="#fff"/><path d="m160 100c11.046 0 20 8.954 20 20s-8.954 20-20 20h-20v20c0 11.046-8.954 20-20 20s-20-8.954-20-20v-20h-20c-11.046 0-20-8.954-20-20s8.954-20 20-20h20v-20c0-11.046 8.954-20 20-20s20 8.954 20 20v20zm30-90h-140c-22 0-40 18-40 40v140c0 22 18 40 40 40h140c22 0 40-18 40-40v-140c0-22-18-40-40-40z" fill="#ff5d7d"/><path d="m190 282.002h-140c-22 0-40 18-40 40v140c0 22 18 40 40 40h140c22 0 40-18 40-40v-140c0-22-18-40-40-40zm-110 90h80c11.046 0 20 8.954 20 20s-8.954 20-20 20h-80c-11.046 0-20-8.954-20-20s8.954-20 20-20z" fill="#ffea60"/><path d="m160 372.002h-80c-11.046 0-20 8.954-20 20s8.954 20 20 20h80c11.046 0 20-8.954 20-20s-8.954-20-20-20z" fill="#fff"/><path d="m190 282.002c22 0 40 18 40 40v140h52.002v-140c0-22 18-40 40-40h140v-52.002h-140c-22 0-40-18-40-40v-140h-52.002v140c0 22-18 40-40 40h-140v52.002z" fill="#8690af"/><path d="m282.002 190c0 22 18 40 40 40h140c22 0 40-18 40-40v-140c0-22-18-40-40-40h-140c-22 0-40 18-40 40zm95.858-27.574c-7.811 7.811-20.474 7.811-28.284 0-7.811-7.811-7.811-20.474 0-28.284 24.724-24.724 31.844-31.844 56.568-56.569 7.811-7.811 20.474-7.811 28.284 0 7.811 7.811 7.811 20.474 0 28.284-24.724 24.725-31.844 31.845-56.568 56.569z" fill="#cbe558"/><path d="m349.576 162.426c7.811 7.811 20.474 7.811 28.284 0 24.724-24.724 31.844-31.844 56.569-56.568 7.811-7.811 7.811-20.474 0-28.284-7.811-7.811-20.474-7.811-28.284 0-24.724 24.724-31.844 31.844-56.568 56.569-7.812 7.809-7.812 20.473-.001 28.283z" fill="#fff"/><path d="m462.002 282.002h-140c-22 0-40 18-40 40v140c0 22 18 40 40 40h140c22 0 40-18 40-40v-140c0-22-18-40-40-40zm-112.426 67.573c7.811-7.81 20.474-7.81 28.284 0l14.142 14.142 14.142-14.142c7.811-7.81 20.474-7.81 28.284 0 7.811 7.811 7.811 20.474 0 28.284l-14.142 14.142 14.142 14.142c7.811 7.811 7.811 20.474 0 28.284-7.811 7.811-20.474 7.811-28.284 0l-14.142-14.142-14.142 14.142c-7.811 7.811-20.474 7.811-28.284 0-7.811-7.811-7.811-20.474 0-28.284l14.142-14.142-14.142-14.142c-7.811-7.81-7.811-20.473 0-28.284z" fill="#66e0f7"/><path d="m434.428 349.575c-7.811-7.81-20.474-7.81-28.284 0l-14.142 14.142-14.142-14.142c-7.811-7.81-20.474-7.81-28.284 0-7.811 7.811-7.811 20.474 0 28.284l14.142 14.142-14.142 14.142c-7.811 7.811-7.811 20.474 0 28.284 7.811 7.811 20.474 7.811 28.284 0l14.142-14.142 14.142 14.142c7.811 7.811 20.474 7.811 28.284 0 7.811-7.811 7.811-20.474 0-28.284l-14.142-14.142 14.142-14.142c7.811-7.81 7.811-20.473 0-28.284z" fill="#fff"/></g><g><path d="m512.001 190v-140c0-27.57-22.43-50-50-50h-139.999c-24.146 0-44.348 17.205-48.994 40h-34.015c-4.645-22.795-24.847-40-48.993-40h-140c-27.57 0-50 22.43-50 50v140c0 24.146 17.205 44.348 40 48.994v34.015c-22.795 4.646-40 24.847-40 48.994v140c0 27.57 22.43 50 50 50h140c24.146 0 44.348-17.205 48.994-40h34.015c4.646 22.795 24.847 40 48.994 40h139.999c27.57 0 50-22.43 50-50v-140c0-24.146-17.205-44.348-40-48.994v-34.015c22.794-4.646 39.999-24.848 39.999-48.994zm-189.999-170h139.999c16.542 0 30 13.458 30 30v140c0 16.542-13.458 30-30 30h-139.999c-16.542 0-30-13.458-30-30v-140c0-16.542 13.458-30 30-30zm-302.002 170v-140c0-16.542 13.458-30 30-30h140c16.542 0 30 13.458 30 30v140c0 16.542-13.458 30-30 30h-140c-16.542 0-30-13.458-30-30zm170 302.002h-140c-16.542 0-30-13.458-30-30v-140c0-16.542 13.458-30 30-30h24.996c5.523 0 10-4.477 10-10s-4.477-10-10-10h-14.996v-32.002h130c27.57 0 50-22.43 50-50v-130h32.002v130c0 27.57 22.43 50 50 50h129.999v32.002h-129.999c-27.57 0-50 22.43-50 50v130h-32.002v-130c0-27.57-22.43-50-50-50h-25.003c-5.523 0-10 4.477-10 10s4.477 10 10 10h25.003c16.542 0 30 13.458 30 30v140c0 16.542-13.458 30-30 30zm302.001-170v140c0 16.542-13.458 30-30 30h-139.999c-16.542 0-30-13.458-30-30v-140c0-16.542 13.458-30 30-30h139.999c16.542 0 30 13.458 30 30z"/><path d="m80 150h10v10c0 16.542 13.458 30 30 30s30-13.458 30-30v-10h10c16.542 0 30-13.458 30-30s-13.458-30-30-30h-10v-10c0-16.542-13.458-30-30-30s-30 13.458-30 30v10h-10c-16.542 0-30 13.458-30 30s13.458 30 30 30zm0-40h20c5.523 0 10-4.477 10-10v-20c0-5.514 4.486-10 10-10s10 4.486 10 10v20c0 5.523 4.477 10 10 10h20c5.514 0 10 4.486 10 10s-4.486 10-10 10h-20c-5.523 0-10 4.477-10 10v20c0 5.514-4.486 10-10 10s-10-4.486-10-10v-20c0-5.523-4.477-10-10-10h-20c-5.514 0-10-4.486-10-10s4.486-10 10-10z"/><path d="m160 362.002h-80c-16.542 0-30 13.458-30 30s13.458 30 30 30h80c16.542 0 30-13.458 30-30s-13.458-30-30-30zm0 40h-80c-5.514 0-10-4.486-10-10s4.486-10 10-10h80c5.514 0 10 4.486 10 10s-4.486 10-10 10z"/><path d="m441.5 342.504c-11.698-11.697-30.73-11.696-42.427 0l-7.07 7.071-7.071-7.071c-11.697-11.697-30.729-11.695-42.427 0-11.697 11.697-11.697 30.729 0 42.426l7.071 7.071-7.071 7.071c-11.697 11.697-11.697 30.729 0 42.427 5.85 5.849 13.53 8.773 21.214 8.772 7.681 0 15.365-2.925 21.213-8.772l7.071-7.071 7.07 7.071c11.697 11.696 30.729 11.698 42.427 0 11.697-11.697 11.697-30.729 0-42.426l-7.071-7.071 7.071-7.071c11.697-11.697 11.697-30.729 0-42.427zm-28.285 56.569 14.142 14.143c3.899 3.899 3.899 10.243 0 14.142-3.896 3.898-10.241 3.901-14.142 0l-14.142-14.142c-1.875-1.875-4.419-2.929-7.071-2.929s-5.195 1.054-7.071 2.929l-14.143 14.142c-1.889 1.889-4.399 2.929-7.071 2.929-2.671 0-5.182-1.04-7.07-2.929-3.899-3.899-3.899-10.243 0-14.142l14.142-14.142c3.905-3.905 3.905-10.236 0-14.142l-14.142-14.142c-1.889-1.889-2.929-4.4-2.929-7.071s1.04-5.182 2.929-7.071c1.949-1.95 4.51-2.924 7.07-2.924 2.562 0 5.122.975 7.071 2.924l14.143 14.142c1.876 1.875 4.419 2.929 7.071 2.929s5.196-1.054 7.071-2.929l14.142-14.142c3.897-3.899 10.242-3.9 14.142 0 3.899 3.899 3.899 10.243 0 14.142l-14.142 14.142c-3.905 3.904-3.905 10.235 0 14.141z"/><path d="m363.718 178.27c7.681 0 15.365-2.925 21.213-8.772l56.568-56.568c11.697-11.697 11.697-30.73 0-42.427-11.698-11.697-30.73-11.696-42.427 0l-56.568 56.569c-11.696 11.697-11.696 30.73 0 42.427 5.85 5.848 13.531 8.772 21.214 8.771zm-7.071-37.057 56.568-56.568c1.949-1.95 4.51-2.924 7.071-2.924s5.121.975 7.07 2.924c3.899 3.899 3.899 10.243 0 14.143l-56.568 56.568c-1.889 1.889-4.399 2.929-7.071 2.929-2.671 0-5.182-1.04-7.07-2.929-3.899-3.9-3.899-10.244 0-14.143z"/><path d="m120 292.002c5.523 0 10-4.477 10-10s-4.477-10-10-10h-.007c-5.523 0-9.996 4.477-9.996 10s4.48 10 10.003 10z"/></g></g></svg>