<svg id="Capa_1" enable-background="new 0 0 512 512" height="512" viewBox="0 0 512 512" width="512" xmlns="http://www.w3.org/2000/svg"><g><path d="m512 500.636-78.545-39.272h-117.455c-41.367 0-75-33.647-75-75v-135h15c24.814 0 45-20.186 45-45v-15h136c41.367 0 75 33.647 75 75z" fill="#f3f5f9"/><path d="m437 191.364h-61v270h57.455l78.545 39.272v-234.272c0-41.353-33.633-75-75-75z" fill="#e1e6f0"/><g><path d="m440.545 431.364h-124.545c-24.814 0-45-20.186-45-45v-106.509c29.355-5.977 52.5-29.15 58.506-58.491h107.494c24.814 0 45 20.186 45 45v185.728z" fill="#ffdf40"/></g><path d="m437 221.364h-61v210h64.545l41.455 20.727v-185.727c0-24.815-20.186-45-45-45z" fill="#ffbe40"/><path d="m0 320.636v-234.272c0-41.353 33.633-75 75-75h181c41.367 0 75 33.647 75 75v120c0 41.353-33.633 75-75 75h-177.455z" fill="#f3f5f9"/><path d="m256 11.364h-90v270h90c41.367 0 75-33.647 75-75v-120c0-41.353-33.633-75-75-75z" fill="#e1e6f0"/><g><path d="m30 86.364c0-24.814 20.186-45 45-45h181c24.814 0 45 20.186 45 45v120c0 24.814-20.186 45-45 45h-184.545l-41.455 20.727z" fill="#6cf"/></g><path d="m256 41.364h-90v210h90c24.814 0 45-20.186 45-45v-120c0-24.815-20.186-45-45-45z" fill="#59abff"/><g id="Hi_2_"><g><path d="m211 71.364h30v150h-30z" fill="#e62e2e"/><path d="m151 131.364h-31v-60h-30c0 11.515 0 157.508 0 150h30v-60h31v60h30c0-11.515 0-157.508 0-150h-30z" fill="#ec4c36"/></g><g><path d="m376 401.364c-24.814 0-45-20.186-45-45v-15h30v15c0 8.276 6.738 15 15 15s15-6.724 15-15v-15h30v15c0 24.814-20.186 45-45 45z" fill="#596c76"/></g><g><path d="m331 281.364h30v30h-30z" fill="#596c76"/></g><g><path d="m391 281.364h30v30h-30z" fill="#465a61"/></g></g><path d="m166 221.364h15c0-11.516 0-157.507 0-150h-15z" fill="#e62e2e"/><path d="m421 356.364v-15h-30v15c0 8.276-6.738 15-15 15v30c24.814 0 45-20.186 45-45z" fill="#465a61"/></g></svg>