<svg id="Capa_1" enable-background="new 0 0 497 497" height="512" viewBox="0 0 497 497" width="512" xmlns="http://www.w3.org/2000/svg"><g><path d="m497 80.458v391.762c0 13.295-10.772 24.067-24.067 24.067h-448.866c-13.284 0-24.067-10.771-24.067-24.066v-391.763c0-13.295 10.783-24.078 24.067-24.078h448.867c13.294.001 24.066 10.783 24.066 24.078z" fill="#6c7fd8"/><path d="m472.933 56.381h-24.238c13.295 0 24.067 10.783 24.067 24.078v391.762c0 13.295-10.772 24.067-24.067 24.067h24.238c13.295 0 24.067-10.772 24.067-24.067v-391.763c0-13.295-10.772-24.077-24.067-24.077z" fill="#4f66d0"/><path d="m497 374.143v98.078c0 13.295-10.772 24.067-24.067 24.067h-448.866c-13.284-.001-24.067-10.772-24.067-24.067v-98.078z" fill="#c4e3ff"/><path d="m0 252.009h497v122.134h-497z" fill="#e2f1fe"/><path d="m0 129.864h497v122.145h-497z" fill="#c4e3ff"/><path d="m497 374.139v98.08c0 13.3-10.77 24.07-24.07 24.07h-448.86c-13.29 0-24.07-10.77-24.07-24.07v-98.08z" fill="#c4e3ff"/><path d="m497 374.139v98.08c0 13.3-10.77 24.07-24.07 24.07h-199.9v-122.15z" fill="#8ac9fe"/><path d="m273.027 252.009h223.973v122.134h-223.973z" fill="#c4e3ff"/><path d="m273.027 129.864h223.973v122.145h-223.973z" fill="#8ac9fe"/><path d="m297.221 496.287h175.713c13.295 0 24.067-10.772 24.067-24.067v-342.356h-199.78z" fill="#fd6930"/><path d="m472.762 129.864v342.357c0 13.295-10.772 24.067-24.067 24.067h24.238c13.295 0 24.067-10.772 24.067-24.067v-342.357z" fill="#fd5426"/><path d="m84.718 86.926h-2.205c-7.78 0-14.086-6.307-14.086-14.086v-58.043c0-7.78 6.307-14.086 14.086-14.086h2.205c7.78 0 14.086 6.307 14.086 14.086v58.043c0 7.78-6.307 14.086-14.086 14.086z" fill="#3e5959"/><path d="m413.401 86.926h-2.205c-7.78 0-14.086-6.307-14.086-14.086v-58.043c0-7.78 6.307-14.086 14.086-14.086h2.205c7.78 0 14.086 6.307 14.086 14.086v58.043c.001 7.78-6.306 14.086-14.086 14.086z" fill="#3e5959"/><g fill="#537983"><path d="m74.684 181.302c-6.484-2.392-12.53-4.994-14.521-5.863-1.575-1.815-1.639-4.403 2.779-6.422 7.172-2.162 13.896 3.114 14.112 3.287 3.17 2.625 7.87 2.204 10.523-.952 2.665-3.171 2.255-7.902-.915-10.567-.522-.438-12.941-10.68-28.047-6.13-7.724 2.327-13.189 8.426-14.266 15.918-1.012 7.048 2.045 13.83 7.977 17.697.331.216.679.405 1.04.567.313.139 7.751 3.45 16.126 6.539 1.7.627 7.199 2.948 6.569 6.475-.481 2.698-3.849 5.489-8.649 5.489-5.14 0-10.077-2.063-13.208-5.518-2.781-3.07-7.524-3.304-10.594-.522s-3.303 7.524-.521 10.594c6.015 6.639 14.881 10.447 24.323 10.447 11.722 0 21.569-7.508 23.416-17.853 1.396-7.816-2.113-18.01-16.144-23.186z"/><path d="m193.095 159.2c-4.319-4.44-10.256-6.787-17.169-6.787-4.655 0-9.322 1.241-13.468 3.81-1.194-2.559-3.783-4.336-6.793-4.336-4.143 0-7.5 3.358-7.5 7.5v54.575c0 4.142 3.357 7.5 7.5 7.5s7.5-3.358 7.5-7.5v-26.34c0-12.276 5.009-20.208 12.761-20.208 3.793 0 5.479 1.282 6.416 2.246 2.711 2.787 4.08 8.756 3.857 16.808-.002.069-.003.138-.003.208v27.028c0 4.142 3.357 7.5 7.5 7.5s7.5-3.358 7.5-7.5v-26.927c.327-12.436-2.398-21.713-8.101-27.577z"/><path d="m118.999 151.009c-4.143 0-7.5 3.358-7.5 7.5v56.331c0 4.142 3.357 7.5 7.5 7.5s7.5-3.358 7.5-7.5v-56.331c0-4.142-3.357-7.5-7.5-7.5z"/></g><g><g><g><path d="m76.378 349.386c-19.427 0-35.231-15.805-35.231-35.232s15.805-35.232 35.231-35.232c7.059 0 13.872 2.082 19.704 6.021 3.433 2.318 4.335 6.98 2.017 10.413-2.319 3.432-6.981 4.335-10.413 2.017-3.343-2.258-7.253-3.451-11.308-3.451-11.155 0-20.231 9.076-20.231 20.232s9.076 20.232 20.231 20.232c4.102 0 7.545-1.214 10.233-3.607.523-.467 1.025-.986 1.49-1.54 2.66-3.174 7.39-3.591 10.565-.929 3.174 2.661 3.59 7.392.929 10.566-.928 1.107-1.939 2.15-3.006 3.102-5.443 4.847-12.431 7.408-20.211 7.408z" fill="#537983"/></g></g><g><g><path d="m230.116 349.185c-9.604 0-18.624-3.873-24.744-10.625-2.782-3.069-2.549-7.812.52-10.594 3.067-2.781 7.811-2.55 10.594.52 3.235 3.569 8.33 5.699 13.631 5.699 4.998 0 8.506-2.924 9.011-5.751.667-3.736-5.056-6.156-6.825-6.809-8.558-3.157-16.158-6.54-16.478-6.683-.361-.161-.709-.35-1.04-.566-6.01-3.917-9.106-10.788-8.081-17.929 1.09-7.595 6.634-13.779 14.468-16.139 15.36-4.627 27.99 5.791 28.521 6.235 3.171 2.666 3.58 7.396.915 10.567-2.653 3.156-7.354 3.576-10.524.951-.206-.165-7.15-5.628-14.585-3.391-3.364 1.852-5.325 2.849-2.881 6.874 2.016.881 8.221 3.553 14.877 6.008 14.25 5.256 17.815 15.595 16.4 23.518-1.875 10.496-11.875 18.115-23.779 18.115z" fill="#537983"/></g></g><g><path d="m152.025 349.386c-19.427 0-35.232-15.805-35.232-35.232s15.806-35.232 35.232-35.232 35.231 15.805 35.231 35.232-15.804 35.232-35.231 35.232zm0-55.464c-11.156 0-20.232 9.076-20.232 20.232s9.076 20.232 20.232 20.232c11.155 0 20.231-9.076 20.231-20.232s-9.075-20.232-20.231-20.232z" fill="#537983"/></g></g><g fill="#537983"><path d="m72.506 422.964h-4.483v-14.005c0-4.142-3.357-7.5-7.5-7.5s-7.5 3.358-7.5 7.5v14.005h-4.376c-4.143 0-7.5 3.358-7.5 7.5s3.357 7.5 7.5 7.5h4.376v29.978c0 4.142 3.357 7.5 7.5 7.5s7.5-3.358 7.5-7.5v-29.978h4.483c4.143 0 7.5-3.358 7.5-7.5s-3.358-7.5-7.5-7.5z"/><path d="m223.363 411.844c-4.384-4.506-10.412-6.888-17.434-6.888-4.788 0-9.59 1.291-13.842 3.969-1.156-2.652-3.797-4.507-6.875-4.507-4.143 0-7.5 3.358-7.5 7.5v55.803c0 4.142 3.357 7.5 7.5 7.5s7.5-3.358 7.5-7.5v-26.933c0-12.655 5.188-20.832 13.217-20.832 3.942 0 5.701 1.34 6.682 2.347 2.803 2.882 4.221 9.029 3.992 17.309-.002.069-.003.138-.003.208v27.636c0 4.142 3.357 7.5 7.5 7.5s7.5-3.358 7.5-7.5v-27.536c.334-12.668-2.437-22.114-8.237-28.076z"/><path d="m149.147 404.196c-4.143 0-7.5 3.358-7.5 7.5v.855c-5.011-3.194-10.951-5.054-17.321-5.054-17.822 0-32.322 14.5-32.322 32.322s14.5 32.322 32.322 32.322c6.37 0 12.311-1.86 17.321-5.054v.855c0 4.142 3.357 7.5 7.5 7.5s7.5-3.358 7.5-7.5v-56.245c0-4.143-3.357-7.501-7.5-7.501zm-24.821 52.945c-9.552 0-17.322-7.771-17.322-17.322s7.771-17.322 17.322-17.322 17.321 7.771 17.321 17.322-7.77 17.322-17.321 17.322z"/></g><path d="m453.686 333.172c-4.134-.271-7.694 2.885-7.952 7.018-.206 3.301-1.396 5.121-1.867 5.486-2.039-.049-3.4-2.479-3.607-2.872-.026-.064-.011-.021-.067-.139-.063-.131-5.755-11.988-12.423-24.743l19.748-26.447c2.478-3.319 1.797-8.019-1.522-10.497s-8.019-1.796-10.497 1.522l-37.964 50.843c-.066.089-.131.179-.192.271-.082.121-8.557 12.063-21.262 12.063-19.803 0-26.829-16.399-26.829-30.442 0-21.633 14.727-32.248 24.68-32.611 8.133-.304 14.604 2.559 20.338 8.988 2.758 3.091 7.499 3.364 10.59.606 3.091-2.757 3.362-7.498.605-10.589-8.69-9.746-19.498-14.453-32.08-13.995-9.644.352-19.374 5.208-26.697 13.324-5.673 6.288-12.436 17.338-12.436 34.277 0 26.755 17.201 45.442 41.829 45.442 19.915 0 32.124-16.44 33.544-18.455l8.166-10.936c4.751 9.303 8.432 16.939 8.84 17.787 1.987 4.368 7.802 11.604 17.301 11.604 9.158 0 16.056-8.041 16.774-19.553.256-4.133-2.886-7.694-7.02-7.952z" fill="#e2f1fe"/><g><path d="m327.971 100.21h-145.409c-4.143 0-7.5-3.358-7.5-7.5s3.357-7.5 7.5-7.5h145.409c4.143 0 7.5 3.358 7.5 7.5s-3.358 7.5-7.5 7.5z" fill="#c4e3ff"/></g></g></svg>