<svg id="Capa_1" enable-background="new 0 0 512 512" height="512" viewBox="0 0 512 512" width="512" xmlns="http://www.w3.org/2000/svg"><g><g><path d="m335.598 502h-248.118c-27.672 0-50.105-22.433-50.105-50.105-.004-27.321 22.783-50.105 50.105-50.105h248.117v100.21z" fill="#eaf0f0"/></g><g><g><path d="m335.601 282.42v119.37h-248.11c-26.644 0-49.2 21.78-50.07 48.41.02-22.84-.04-290.15-.04-291.14 0-22.15 17.96-40.1 40.1-40.1h96.7v163.46h61.4v59.81l58.7-59.81z" fill="#e0a083"/></g></g><g><path d="m174.18 10v272.419h61.403l-.002.001.002 59.807 58.698-59.807v-.001h180.346v-272.419z" fill="#eaf0f0"/></g><g><path d="m474.627 0h-105.052c-5.523 0-10 4.478-10 10s4.477 10 10 10h95.052v252.419l-170.346.001c-2.569 0-5.343 1.167-7.137 2.995l-41.562 42.348-.001-35.1c.084-5.53-4.429-10.244-9.998-10.244h-51.402l-.001-252.419h97.415c5.523 0 10-4.478 10-10s-4.477-10-10-10h-107.415c-5.523 0-10 4.478-10 10v98.96h-86.699-.008c-27.625 0-50.1 22.475-50.1 50.101 0 0 .058 292.265.003 292.835 0 33.141 26.963 60.104 60.104 60.104h248.117c5.523 0 10-4.478 10-10l.003-209.581h129.026c5.523 0 10-4.478 10-10v-272.419c.001-5.522-4.476-10-9.999-10zm-307.517 289.49c1.81 1.81 4.31 2.93 7.072 2.93h51.4v49.811c0 4.062 2.457 7.72 6.216 9.257 3.699 1.511 8.12.601 10.921-2.252l55.76-56.815h27.123v99.37h-231.129v-262.831h69.707v153.459c0 2.761 1.12 5.262 2.93 7.071zm-118.371-139.378c3.582-11.481 13.896-19.741 25.734-21.001v264.102c-10.008 2.21-19.407 7.04-27.049 13.869-.005-64.708-.043-248.021-.043-248.021 0-3.041.47-6.044 1.358-8.949zm38.741 341.888c-22.114 0-40.104-17.991-40.104-40.104 0-21.76 18.397-40.105 40.115-40.105h238.106v31.119h-231.694c-5.523 0-10 4.478-10 10s4.477 10 10 10h231.694v29.09z"/><path d="m316.85 79.407-15.693 40.196h-20.809c-5.523 0-10 4.478-10 10s4.477 10 10 10h13.001l-22.985 58.875c-2.062 5.28-7.056 8.692-12.725 8.692-5.79 0-10.969-3.67-12.888-9.132l-3.178-9.046c-1.83-5.21-7.539-7.947-12.75-6.12-5.21 1.831-7.95 7.539-6.12 12.749l3.178 9.046c4.729 13.46 17.491 22.503 31.757 22.503 13.968 0 26.276-8.407 31.356-21.419l25.825-66.148h21.426c5.523 0 10-4.478 10-10s-4.477-10-10-10h-13.618l12.853-32.923c2.062-5.28 7.056-8.692 12.725-8.692h.825c5.737 0 10.9 3.625 12.849 9.021l4.063 11.255c1.876 5.194 7.606 7.885 12.802 6.01 5.194-1.875 7.885-7.606 6.01-12.801l-4.063-11.256c-4.801-13.296-17.524-22.229-31.66-22.229h-.825c-13.969 0-26.277 8.408-31.356 21.419z"/><path d="m422.811 161.043c-3.906-3.903-10.237-3.904-14.142 0l-17.458 17.457-17.458-17.458c-3.905-3.904-10.237-3.904-14.142 0-3.905 3.905-3.905 10.237 0 14.143l17.457 17.457-17.456 17.458c-3.905 3.905-3.906 10.237 0 14.143 3.823 3.821 10.31 3.832 14.142 0l17.458-17.458 17.458 17.458c3.823 3.822 10.31 3.831 14.142 0 3.905-3.905 3.905-10.237 0-14.143l-17.457-17.457 17.457-17.457c3.904-3.906 3.904-10.238-.001-14.143z"/><path d="m321.05 18.31c7.531 5.162 17.569-2.336 15.18-10.974-1.134-4.102-4.877-7.117-9.136-7.322-4.259-.204-8.281 2.407-9.812 6.387-1.65 4.287-.107 9.376 3.768 11.909z"/></g></g></svg>